<?xml version="1.0" encoding="UTF-8"?>
<svg id="Layer_1" data-name="Layer 1" xmlns="http://www.w3.org/2000/svg" viewBox="0 0 3411.72 765.88">
  <defs>
    <style>
      .cls-1 {
        fill: #2a3d65;
      }

      .cls-2 {
        fill: none;
      }
    </style>
  </defs>
  <g>
    <g>
      <path class="cls-1" d="M871.62,188.29h83.87l-87.58,340.21h-82.87l86.58-340.21Z"/>
      <path class="cls-1" d="M1529.11,320.18v208.32h-83.19v-196.82c0-53.43-24.35-83.87-66.28-83.87-46.67,0-73.05,35.17-73.05,98.75v181.94h-83.19v-196.82c0-53.43-25.7-83.87-70.34-83.87-47.35,0-75.07,35.17-75.07,98.75v181.94h-83.19V188.29h83.19l-2.03,73.05c14.88-50.73,52.76-81.16,105.51-81.16,56.81,0,98.07,29.76,115.66,79.81,14.88-50.73,53.43-79.81,110.25-79.81,73.72,0,121.75,54.78,121.75,140.01Z"/>
      <path class="cls-1" d="M1930.86,359.41c0,104.16-66.96,177.21-164.36,177.21-46.67,0-85.22-19.61-110.25-54.78v175.18h-83.19V188.29h83.19v48.02c25.02-35.85,63.58-56.14,110.25-56.14,97.4,0,164.36,73.72,164.36,179.24ZM1846.99,359.41c0-65.61-40.58-110.25-98.07-110.25s-97.4,45.32-97.4,110.25,39.91,108.22,97.4,108.22,98.07-43.96,98.07-108.22Z"/>
      <path class="cls-1" d="M2277.97,188.29v340.21h-83.19l1.35-50.73c-18.94,37.88-54.11,58.84-102.13,58.84-74.4,0-122.42-54.78-122.42-140.01v-208.32h83.19v196.82c0,53.43,24.35,83.87,66.96,83.87,45.99,0,73.05-35.17,73.05-98.75v-181.94h83.19Z"/>
      <path class="cls-1" d="M2313.22,425.7c0-19.61,4.06-41.93,8.79-64.93l68.66-305.71h82.99l-72.51,321.94c-2.71,12.18-4.73,24.35-4.73,35.17,0,30.44,21.64,51.4,55.46,51.4,6.76,0,10.14,0,18.26-2.03l-12.85,67.64c-11.5,2.03-20.29,2.71-28.41,2.71-67.64,0-115.66-43.96-115.66-106.19Z"/>
      <path class="cls-1" d="M2499.63,421.64l76.43-2.03c1.35,37.2,29.76,62.9,71.7,62.9,36.52,0,60.2-16.91,60.2-41.93,0-22.32-17.58-33.14-52.76-41.93l-36.52-8.79c-68.31-14.88-100.1-46.67-100.1-101.45,0-66.28,55.46-112.28,134.6-112.28s142.71,48.7,144.74,119.04l-75.07,2.03c-2.03-37.2-31.79-62.9-69.67-62.9-31.79,0-55.46,18.26-55.46,44.64,0,19.61,12.85,32.47,38.55,39.23l36.52,8.79c75.75,16.91,116.34,50.05,116.34,104.16,0,64.93-58.84,109.57-141.36,109.57s-146.77-48.7-148.13-119.04Z"/>
    </g>
    <g>
      <path class="cls-1" d="M58.82,226.38h95.34v70.43c0,189.07,153.27,342.35,342.35,342.35h2677.97v95.35H499.19c-243.21,0-440.37-197.16-440.37-440.37v-67.75Z"/>
      <path class="cls-1" d="M487.05,432.1h86.73v95.34h-83.5c-121.7,0-220.36-98.66-220.36-220.36v-176.14H58.82V55.06h518.52v75.88h-212.07l-.2,179.03c-.07,67.43,54.56,122.13,121.99,122.13Z"/>
    </g>
  </g>
  <path class="cls-1" d="M874.33,107.08c0-30.44,23.67-54.11,54.11-54.11s54.11,23.67,54.11,54.11-23,54.11-54.11,54.11-54.11-23-54.11-54.11Z"/>
  <line class="cls-2" x1="2329.18" y1="119.58" x2="2346.71" y2="41.52"/>
  <line class="cls-2" x1="2408.12" y1="136.66" x2="2426.66" y2="55.06"/>
  <path class="cls-1" d="M2835.27,442.12c0-61.21,55.15-100.89,149.31-108.96l63.22-5.38v-14.8c0-39.01-27.58-66.59-67.26-66.59-36.12,0-62.54,20.47-69.13,51.77l-78.55-2.02c8.59-69.77,66.63-117.01,147.69-117.01,87.44,0,149.31,56.5,149.31,138.55v109.63c0,36.32,2.69,75.33,7.4,100.22h-80.04c-3.36-12.78-6.05-34.97-6.05-70.62h-2.02c-12.11,45.74-51.12,75.33-107.61,75.33-65.24,0-106.27-34.97-106.27-90.13ZM3048.48,393.02v-21.52l-52.46,5.38c-50.44,4.04-78.69,24.89-78.69,57.84,0,27.58,21.52,45.06,54.48,45.06,47.75,0,76.68-36.99,76.68-86.76Z"/>
</svg>